<svg height="24" width="24" xmlns="http://www.w3.org/2000/svg"><g transform="translate(0 -1028.4)"><path d="m3 1030.4h1v22h-1z" fill="#ecf0f1"/><path d="m17.5 1030.4c-2.25 0-4.5 1.1-4.5 1.1s-2.25 1.1-4.5 1.1-4.5-1.1-4.5-1.1v13.7s2.25 1.2 4.5 1.2 4.5-1.2 4.5-1.2 2.25-1.1 4.5-1.1 4.5 1.1 4.5 1.1v-13.7s-2.25-1.1-4.5-1.1z" fill="#bdc3c7"/><path d="m2 1030.4h1v22h-1z" fill="#bdc3c7"/><path d="m17.5 1043.2c-2.25 0-4.5 1.2-4.5 1.2s-2.25 1.1-4.5 1.1-4.5-1.1-4.5-1.1v1s2.25 1.1 4.5 1.1 4.5-1.1 4.5-1.1 2.25-1.2 4.5-1.2 4.5 1.2 4.5 1.2v-1s-2.25-1.2-4.5-1.2z" fill="#95a5a6"/><path d="m3 1029.4c-.5523 0-1 .4-1 1h2c0-.6-.4477-1-1-1z" fill="#95a5a6"/><path d="m3 1029.4v1h1c0-.6-.4477-1-1-1z" fill="#bdc3c7"/><path d="m19 1030.5v4.9l3 1v-4.9s-1.347-.7-3-1zm0 4.9-4-1v5l4 1zm0 5v3c1.653.3 3 1 3 1v-4zm-4-1-4 1v4.7c1.157-.3 2-.7 2-.7s.843-.5 2-.8zm-4 1v-5l-4 1v5zm-4 1-3-1v4s1.3468.6 3 1zm0-5v-3.9c-1.6532-.3-3-1-3-1v3.9zm4-1 4-1v-3.6c-1.157.3-2 .7-2 .7s-.843.4-2 .8z" fill="#2c3e50"/></g></svg>